<svg width="201" height="50" viewBox="0 0 201 50" fill="none" xmlns="http://www.w3.org/2000/svg">
<path d="M71.936 16.672C70.5707 15.072 68.7573 14.272 66.496 14.272C64.896 14.272 63.6373 14.624 62.72 15.328C61.8027 16.032 61.344 17.0133 61.344 18.272C61.344 19.936 62.4853 21.152 64.768 21.92L69.408 23.456C71.2853 24.0747 72.64 24.9067 73.472 25.952C74.3253 26.976 74.752 28.2347 74.752 29.728C74.752 31.776 73.9947 33.3867 72.48 34.56C70.9653 35.7333 68.896 36.32 66.272 36.32C64.352 36.32 62.656 35.9787 61.184 35.296C59.7333 34.6133 58.56 33.6213 57.664 32.32C57.5787 32.1493 57.536 32.0427 57.536 32C57.536 31.8507 57.6427 31.7013 57.856 31.552L59.008 30.752C59.2 30.624 59.3493 30.56 59.456 30.56C59.584 30.56 59.7013 30.624 59.808 30.752C60.7253 31.9253 61.632 32.7573 62.528 33.248C63.424 33.7387 64.6293 33.984 66.144 33.984C67.936 33.984 69.3227 33.664 70.304 33.024C71.3067 32.384 71.808 31.392 71.808 30.048C71.808 29.216 71.5413 28.512 71.008 27.936C70.496 27.3387 69.5573 26.784 68.192 26.272L63.328 24.608C61.6427 24.032 60.3947 23.2107 59.584 22.144C58.7947 21.056 58.4 19.8613 58.4 18.56C58.4 17.2373 58.7307 16.0747 59.392 15.072C60.0747 14.0693 61.024 13.3013 62.24 12.768C63.4773 12.2133 64.896 11.936 66.496 11.936C68.0533 11.936 69.4613 12.2133 70.72 12.768C72 13.3227 73.088 14.1013 73.984 15.104C74.0907 15.2107 74.144 15.3173 74.144 15.424C74.144 15.5307 74.0907 15.6267 73.984 15.712L72.512 16.864C72.448 16.928 72.384 16.96 72.32 16.96C72.256 16.96 72.128 16.864 71.936 16.672ZM78.452 36C78.1533 36 78.004 35.8613 78.004 35.584V19.456C78.004 19.1787 78.1213 19.04 78.356 19.04H80.276C80.4893 19.04 80.596 19.1573 80.596 19.392V21.248C80.596 21.504 80.7027 21.536 80.916 21.344C82.068 20.4053 83.0493 19.7333 83.86 19.328C84.6707 18.9227 85.5773 18.72 86.58 18.72C87.7747 18.72 88.756 18.9867 89.524 19.52C90.3133 20.0533 90.8467 20.7253 91.124 21.536C91.1667 21.6 91.2093 21.632 91.252 21.632C91.316 21.632 91.4227 21.5787 91.572 21.472C92.6813 20.5333 93.6733 19.84 94.548 19.392C95.444 18.944 96.3827 18.72 97.364 18.72C98.9 18.72 100.095 19.1573 100.948 20.032C101.823 20.9067 102.26 22.0907 102.26 23.584V35.488C102.26 35.8293 102.1 36 101.78 36H99.988C99.7107 36 99.572 35.8613 99.572 35.584V24.16C99.572 23.0933 99.316 22.272 98.804 21.696C98.292 21.12 97.524 20.832 96.5 20.832C95.6467 20.832 94.8467 21.0453 94.1 21.472C93.3533 21.8773 92.628 22.3893 91.924 23.008C91.7533 23.1787 91.636 23.328 91.572 23.456C91.508 23.584 91.476 23.744 91.476 23.936V35.488C91.476 35.8293 91.316 36 90.996 36H89.204C88.9267 36 88.788 35.8613 88.788 35.584V24.16C88.788 21.9413 87.764 20.832 85.716 20.832C84.8627 20.832 84.0733 21.0347 83.348 21.44C82.644 21.824 81.7587 22.4853 80.692 23.424V35.52C80.692 35.6907 80.6493 35.8187 80.564 35.904C80.5 35.968 80.3827 36 80.212 36H78.452ZM108.86 15.392C108.86 15.6053 108.817 15.7653 108.732 15.872C108.647 15.9573 108.497 16 108.284 16H106.428C106.108 16 105.948 15.8187 105.948 15.456V12.768C105.948 12.4267 106.097 12.256 106.396 12.256H108.412C108.54 12.256 108.647 12.2987 108.732 12.384C108.817 12.4693 108.86 12.5867 108.86 12.736V15.392ZM108.732 35.456C108.732 35.6693 108.689 35.8187 108.604 35.904C108.519 35.968 108.369 36 108.156 36H106.524C106.332 36 106.204 35.968 106.14 35.904C106.076 35.84 106.044 35.7227 106.044 35.552V19.488C106.044 19.1893 106.172 19.04 106.428 19.04H108.38C108.615 19.04 108.732 19.1787 108.732 19.456V35.456ZM115.46 35.456C115.46 35.6693 115.418 35.8187 115.332 35.904C115.247 35.968 115.098 36 114.884 36H113.22C113.028 36 112.9 35.968 112.836 35.904C112.772 35.84 112.74 35.7227 112.74 35.552L112.772 12.704C112.772 12.4053 112.9 12.256 113.156 12.256H115.076C115.332 12.256 115.46 12.3947 115.46 12.672V35.456ZM121.228 28.576C121.228 29.6 121.474 30.5493 121.964 31.424C122.477 32.2987 123.159 32.992 124.013 33.504C124.866 34.016 125.805 34.272 126.829 34.272C128.962 34.272 130.626 33.3867 131.821 31.616C131.906 31.5307 131.981 31.488 132.045 31.488C132.109 31.4667 132.183 31.4773 132.269 31.52L133.613 32.192C133.783 32.2987 133.804 32.448 133.677 32.64C132.845 33.92 131.853 34.8587 130.701 35.456C129.549 36.032 128.173 36.32 126.573 36.32C125.015 36.32 123.618 35.9573 122.381 35.232C121.143 34.5067 120.173 33.4933 119.468 32.192C118.786 30.8693 118.444 29.3653 118.444 27.68C118.444 25.8667 118.796 24.288 119.5 22.944C120.204 21.5787 121.165 20.5333 122.381 19.808C123.618 19.0827 125.005 18.72 126.541 18.72C128.077 18.72 129.421 19.0613 130.573 19.744C131.746 20.4267 132.653 21.4293 133.293 22.752C133.933 24.0533 134.253 25.6 134.253 27.392V27.52C134.253 27.712 134.221 27.8613 134.156 27.968C134.093 28.0533 133.965 28.096 133.773 28.096H121.516C121.324 28.096 121.228 28.256 121.228 28.576ZM131.021 26.336C131.255 26.336 131.405 26.3147 131.469 26.272C131.533 26.208 131.565 26.08 131.565 25.888C131.565 24.9493 131.362 24.0853 130.957 23.296C130.573 22.4853 129.997 21.8453 129.229 21.376C128.482 20.8853 127.607 20.64 126.605 20.64C125.517 20.64 124.567 20.9173 123.757 21.472C122.946 22.0053 122.327 22.7093 121.901 23.584C121.474 24.4373 121.271 25.3547 121.293 26.336H131.021Z" fill="white"/>
<path d="M155.374 19.328C155.374 21.6107 154.596 23.3493 153.038 24.544C151.502 25.7387 149.444 26.336 146.862 26.336H141.614C141.401 26.336 141.294 26.4427 141.294 26.656V35.456C141.294 35.8187 141.102 36 140.718 36H137.934C137.593 36 137.422 35.84 137.422 35.52V12.736C137.422 12.5653 137.454 12.448 137.518 12.384C137.582 12.2987 137.7 12.256 137.87 12.256H146.414C149.102 12.256 151.268 12.8533 152.91 14.048C154.553 15.2213 155.374 16.9813 155.374 19.328ZM151.406 19.232C151.406 16.48 149.668 15.104 146.19 15.104H141.774C141.604 15.104 141.476 15.136 141.39 15.2C141.326 15.264 141.294 15.3813 141.294 15.552V23.008C141.294 23.328 141.412 23.488 141.646 23.488H146.414C147.972 23.488 149.188 23.136 150.062 22.432C150.958 21.7067 151.406 20.64 151.406 19.232ZM161.654 35.392C161.654 35.6267 161.601 35.7867 161.494 35.872C161.409 35.9573 161.238 36 160.982 36H158.806C158.593 36 158.443 35.968 158.358 35.904C158.273 35.8187 158.23 35.68 158.23 35.488L158.294 12.736C158.294 12.416 158.433 12.256 158.71 12.256H161.238C161.515 12.256 161.654 12.416 161.654 12.736V35.392ZM171.351 33.76C172.823 33.76 174.37 32.9173 175.991 31.232V19.584C175.991 19.2213 176.194 19.04 176.599 19.04H178.903C179.245 19.04 179.415 19.2107 179.415 19.552L179.351 35.552C179.351 35.8507 179.223 36 178.967 36H176.471C176.215 36 176.087 35.8613 176.087 35.584V33.792C176.087 33.536 175.981 33.504 175.767 33.696C174.722 34.656 173.751 35.3387 172.855 35.744C171.959 36.128 171.021 36.32 170.039 36.32C168.567 36.32 167.362 35.872 166.423 34.976C165.485 34.0587 165.015 32.8533 165.015 31.36V19.616C165.015 19.232 165.207 19.04 165.591 19.04H167.927C168.247 19.04 168.407 19.2107 168.407 19.552V30.656C168.407 31.5947 168.674 32.352 169.207 32.928C169.741 33.4827 170.455 33.76 171.351 33.76ZM198.808 18.624C199.213 18.624 199.416 18.816 199.416 19.2V20.64C199.416 21.0667 199.234 21.28 198.872 21.28C198.53 21.28 198.21 21.2907 197.912 21.312C197.613 21.3333 197.357 21.376 197.144 21.44C196.866 21.5253 196.674 21.632 196.568 21.76C196.482 21.8667 196.461 22.0053 196.504 22.176C196.525 22.24 196.6 22.4533 196.728 22.816C196.877 23.1787 196.952 23.616 196.952 24.128C196.952 25.6427 196.333 26.8907 195.096 27.872C193.88 28.832 192.109 29.312 189.784 29.312C188.376 29.312 187.352 29.4293 186.712 29.664C186.072 29.8987 185.752 30.208 185.752 30.592C185.752 30.912 185.954 31.1467 186.36 31.296C186.765 31.424 187.448 31.5093 188.408 31.552L192.664 31.808C194.584 31.9147 196.013 32.3627 196.952 33.152C197.912 33.9413 198.392 34.9973 198.392 36.32C198.392 37.9627 197.645 39.2533 196.152 40.192C194.68 41.1307 192.589 41.6 189.88 41.6C187.064 41.6 184.92 41.2267 183.448 40.48C181.997 39.7333 181.272 38.6453 181.272 37.216C181.272 36.4907 181.528 35.8507 182.04 35.296C182.552 34.7413 183.298 34.24 184.28 33.792C184.536 33.664 184.536 33.5467 184.28 33.44C183.213 32.9493 182.68 32.2667 182.68 31.392C182.68 30.88 182.914 30.4 183.384 29.952C183.874 29.504 184.546 29.1307 185.4 28.832C185.528 28.7893 185.592 28.736 185.592 28.672C185.592 28.5867 185.528 28.512 185.4 28.448C184.44 27.9573 183.725 27.36 183.256 26.656C182.786 25.952 182.552 25.1093 182.552 24.128C182.552 22.464 183.202 21.1627 184.504 20.224C185.826 19.264 187.682 18.784 190.072 18.784C192.162 18.784 193.794 19.264 194.968 20.224C195.117 20.3307 195.234 20.384 195.32 20.384C195.448 20.384 195.576 20.32 195.704 20.192C196.109 19.7653 196.6 19.4027 197.176 19.104C197.773 18.784 198.317 18.624 198.808 18.624ZM189.784 27.392C191.128 27.392 192.13 27.1147 192.792 26.56C193.474 25.984 193.816 25.1733 193.816 24.128C193.816 23.0613 193.474 22.2293 192.792 21.632C192.109 21.0347 191.106 20.736 189.784 20.736C188.482 20.736 187.469 21.0453 186.744 21.664C186.018 22.2613 185.656 23.0827 185.656 24.128C185.656 25.152 186.008 25.952 186.712 26.528C187.437 27.104 188.461 27.392 189.784 27.392ZM187.096 34.272C186.69 34.2507 186.253 34.3467 185.784 34.56C185.336 34.7733 184.952 35.0827 184.632 35.488C184.333 35.872 184.184 36.3093 184.184 36.8C184.184 38.7413 186.189 39.712 190.2 39.712C191.864 39.712 193.133 39.4667 194.008 38.976C194.882 38.5067 195.32 37.792 195.32 36.832C195.32 35.4453 194.317 34.688 192.312 34.56L187.096 34.272Z" fill="#F2C94C"/>
<path d="M46.6667 26.6667C46.6667 32.8551 44.2083 38.79 39.8325 43.1658C35.4566 47.5417 29.5217 50 23.3333 50C17.145 50 11.21 47.5417 6.83418 43.1658C2.45833 38.79 9.3442e-07 32.8551 0 26.6667H3.10333C3.10334 32.032 5.2347 37.1776 9.02857 40.9715C12.8224 44.7653 17.968 46.8967 23.3333 46.8967C28.6987 46.8967 33.8442 44.7653 37.6381 40.9714C41.432 37.1776 43.5633 32.032 43.5633 26.6667H46.6667Z" fill="#F2C94C"/>
<path d="M39.1117 3.91999C37.1505 1.27766 35.0901 0.0470158 32.6276 0.0470158C31.0333 0.0470158 29.4862 0.558362 27.9927 1.05183L27.9433 1.0681C26.35 1.5913 24.8451 2.08577 23.2212 2.08577C21.5939 2.08577 19.999 1.55052 18.4467 1.02993C16.9239 0.523402 15.3495 0 13.7735 0C11.2987 0 9.28667 1.25556 7.4424 3.94993C4.54129 8.17512 6.18845 12.6997 7.51715 16.3486C8.10886 17.9721 8.66763 19.5053 8.66763 20.663C8.66763 26.6073 9.92118 36.6669 14.6197 36.6669C17.8353 36.6669 18.8246 32.9307 19.6999 29.6252C20.6291 26.1454 21.4338 23.6823 23.3353 23.6823C24.9759 23.6823 25.6035 25.277 26.4737 29.0999C27.2268 32.4401 28.1639 36.5965 32.1158 36.5965C37.6301 36.5965 38.0587 24.395 38.0587 20.6554C38.0587 19.5578 38.599 18.0374 39.1712 16.4276L39.1939 16.3633C40.5104 12.6392 42.1487 8.00473 39.1117 3.91999ZM36.3525 15.3587L36.3316 15.4182C35.6699 17.2797 35.0451 19.038 35.0451 20.6552C35.0451 24.2045 34.6718 27.6449 34.0206 30.0943C33.2599 32.9558 32.3877 33.5825 32.1158 33.5825C30.9055 33.5825 30.3246 32.4764 29.4106 28.4226C28.6656 25.15 27.6455 20.668 23.3353 20.668C18.9725 20.668 17.7099 25.3953 16.7841 28.8629C16.279 30.7702 15.5159 33.6526 14.6199 33.6526C14.4809 33.6526 13.6055 33.0483 12.804 30.1761C12.0907 27.6204 11.6819 24.1528 11.6819 20.6626C11.6819 18.9729 11.0345 17.1967 10.3447 15.304C9.14502 12.0091 7.90452 8.60187 9.92861 5.65395C11.5205 3.32747 12.7656 3.01383 13.7735 3.01383C14.8617 3.01383 16.1411 3.43918 17.4977 3.89025C19.1871 4.45705 21.1017 5.0996 23.221 5.0996C25.3269 5.0996 27.2165 4.47916 28.8836 3.93164L28.9356 3.91456C30.2637 3.47555 31.5185 3.06105 32.6276 3.06105C33.6625 3.06105 34.9549 3.37649 36.6924 5.71744C38.7722 8.51427 37.5421 11.9938 36.3525 15.3587Z" fill="white"/>
<circle cx="32" cy="10" r="2" fill="#F2C94C"/>
</svg>
